<svg width="48" height="48" viewBox="0 0 48 48" fill="none" xmlns="http://www.w3.org/2000/svg">
<path d="M21.2909 26.6049H10.4978V25.0072C10.517 23.9908 9.70854 23.1512 8.69208 23.132C8.68329 23.1318 8.67449 23.1317 8.6657 23.1317H4.38495C3.36827 23.1362 2.54794 23.9642 2.5525 24.9809L2.55282 25.0072V26.6049H1.84081C0.824132 26.6049 0 27.429 0 28.4457V38.5702C0 39.5869 0.824132 40.411 1.84081 40.411H21.2909C22.3076 40.411 23.1317 39.5869 23.1317 38.5702V28.4023C23.1081 27.4027 22.2908 26.6046 21.2909 26.6049Z" fill="#1A1C36"/>
<path d="M33.7337 10.9754H33.0217V9.4298C33.0217 8.41312 32.1976 7.58899 31.1809 7.58899H26.9088C25.8922 7.58899 25.068 8.41312 25.068 9.4298V10.9754H22.932V9.4298C22.932 8.41312 22.1079 7.58899 21.0912 7.58899H16.8191C15.8024 7.58899 14.9783 8.41312 14.9783 9.4298V10.9754H14.275C13.2583 10.9754 12.4342 11.7995 12.4342 12.8162V22.9928C12.415 24.0092 13.2235 24.8488 14.2399 24.868C14.2516 24.8682 14.2633 24.8683 14.275 24.8683H33.7251C34.7417 24.8683 35.5659 24.0442 35.5659 23.0275V12.8249C35.5706 11.8082 34.7504 10.9802 33.7337 10.9754Z" fill="#1A1C36"/>
<path d="M46.1593 26.6049H45.4473V25.0072C45.4665 23.9908 44.658 23.1512 43.6415 23.132C43.6327 23.1318 43.6239 23.1317 43.6152 23.1317H39.3344C38.3177 23.1317 37.4936 23.9558 37.4936 24.9725V26.6049H26.7092C25.7093 26.6046 24.892 27.4027 24.8684 28.4023V38.5702C24.8684 39.5869 25.6925 40.411 26.7092 40.411H46.1593C47.176 40.411 48.0001 39.5869 48.0001 38.5702V28.4023C47.9765 27.4027 47.1593 26.6046 46.1593 26.6049Z" fill="#1A1C36"/>
</svg>
