<svg width="48" height="48" viewBox="0 0 48 48" fill="none" xmlns="http://www.w3.org/2000/svg">
<path d="M11.596 16.6257C11.8088 16.6256 12.0172 16.5647 12.1966 16.4501C12.376 16.3355 12.5189 16.1721 12.6086 15.979C12.6982 15.786 12.7308 15.5713 12.7025 15.3604C12.6743 15.1494 12.5863 14.9509 12.449 14.7882C11.2882 13.4111 10.6515 11.668 10.6512 9.86689C10.6512 5.65801 14.0754 2.23401 18.2841 2.23401C22.4928 2.23401 25.9169 5.65801 25.9169 9.86689C25.9169 11.0412 25.6578 12.1668 25.1468 13.2131C25.0823 13.3448 25.0445 13.488 25.0355 13.6344C25.0264 13.7808 25.0463 13.9276 25.0939 14.0663C25.1416 14.205 25.2161 14.333 25.3132 14.4429C25.4104 14.5528 25.5282 14.6425 25.66 14.7069C25.7918 14.7714 25.935 14.8093 26.0814 14.8184C26.2278 14.8275 26.3746 14.8076 26.5133 14.7599C26.6521 14.7123 26.7801 14.6377 26.89 14.5405C26.9999 14.4434 27.0895 14.3255 27.1538 14.1936C27.8155 12.8394 28.1508 11.3838 28.1508 9.86689C28.1508 4.42614 23.7246 0 18.2839 0C12.8431 0 8.41699 4.42614 8.41699 9.86689C8.41699 12.194 9.24265 14.4535 10.7417 16.2292C10.8465 16.3536 10.9773 16.4535 11.1249 16.522C11.2725 16.5905 11.4333 16.6259 11.596 16.6257Z" fill="#1A1C36"/>
<path d="M39.3063 26.3921C38.5865 22.1363 35.5222 21.5578 34.2023 21.5102C34.0186 21.5035 33.8393 21.4521 33.68 21.3605C33.5206 21.2689 33.386 21.1398 33.2878 20.9845C32.2887 19.4102 30.9337 18.996 29.7855 18.996C29.2597 18.9958 28.7775 19.0826 28.392 19.1846C28.2803 19.214 28.1652 19.229 28.0496 19.2291C27.6442 19.2291 27.2534 19.044 27.0093 18.7058C26.0264 17.3439 24.7435 16.9757 23.6438 16.9757C23.3496 16.9757 23.0685 17.0021 22.8099 17.0427C22.7422 17.0535 22.6737 17.0589 22.6052 17.0589C21.9014 17.0589 21.3077 16.4874 21.3068 15.7582L21.2975 7.88569C21.2949 5.85144 19.7693 4.83496 18.2436 4.83496C16.715 4.83496 15.1864 5.85497 15.189 7.89314L15.2091 24.668C15.2097 24.9235 15.1346 25.1736 14.9933 25.3865C14.852 25.5995 14.6508 25.7659 14.4151 25.8647C8.35699 28.3969 15.838 39.7563 17.1778 41.7031C17.3083 41.8927 17.3861 42.1136 17.4033 42.3431L17.7307 46.748C17.7817 47.4275 18.3481 47.9998 19.0296 47.9998H19.0313L33.6684 47.9348C34.3216 47.9339 34.873 47.4262 34.9581 46.7785L35.5542 42.2262C35.5802 42.0321 35.6485 41.8461 35.7542 41.6813C39.6659 35.6349 39.9733 30.3368 39.3063 26.3921Z" fill="#1A1C36"/>
</svg>
