<svg width="24" height="24" viewBox="0 0 24 24" fill="none" xmlns="http://www.w3.org/2000/svg">
<rect x="2" y="10" width="20" height="11" rx="2" stroke="currentColor" stroke-width="2"/>
<rect x="2" y="10" width="20" height="11" rx="2" fill="currentColor" fill-opacity="0.05"/>
<rect x="4" y="12" width="3" height="1" rx="0.5" fill="currentColor" fill-opacity="0.7"/>
<rect x="4" y="13.5" width="2.5" height="0.8" rx="0.4" fill="currentColor" fill-opacity="0.5"/>
<rect x="4" y="15" width="2" height="0.8" rx="0.4" fill="currentColor" fill-opacity="0.5"/>
<rect x="4" y="16.5" width="1.5" height="0.8" rx="0.4" fill="currentColor" fill-opacity="0.5"/>
<rect x="9" y="12" width="2.5" height="1" rx="0.5" fill="currentColor" fill-opacity="0.7"/>
<rect x="9" y="13.5" width="2" height="0.8" rx="0.4" fill="currentColor" fill-opacity="0.5"/>
<rect x="9" y="15" width="1.8" height="0.8" rx="0.4" fill="currentColor" fill-opacity="0.5"/>
<rect x="13" y="12" width="2.5" height="1" rx="0.5" fill="currentColor" fill-opacity="0.7"/>
<rect x="13" y="13.5" width="2" height="0.8" rx="0.4" fill="currentColor" fill-opacity="0.5"/>
<rect x="13" y="15" width="1.8" height="0.8" rx="0.4" fill="currentColor" fill-opacity="0.5"/>
<rect x="17" y="12" width="3" height="1" rx="0.5" fill="currentColor" fill-opacity="0.7"/>
<rect x="17" y="13.5" width="2.5" height="0.8" rx="0.4" fill="currentColor" fill-opacity="0.5"/>
<rect x="17" y="15" width="2" height="1.2" rx="0.6" fill="currentColor" fill-opacity="0.3"/>
<rect x="4" y="18.5" width="16" height="0.5" rx="0.25" fill="currentColor" fill-opacity="0.3"/>
<circle cx="5" cy="8" r="0.8" fill="currentColor" fill-opacity="0.4"/>
<circle cx="7" cy="8" r="0.8" fill="currentColor" fill-opacity="0.4"/>
<circle cx="9" cy="8" r="0.8" fill="currentColor" fill-opacity="0.4"/>
</svg>
