<svg width="48" height="48" viewBox="0 0 48 48" fill="none" xmlns="http://www.w3.org/2000/svg">
<path d="M42.5737 1.50237H5.4289C2.43479 1.50237 0 3.93635 0 6.934V41.0723C0 44.0664 2.43479 46.4978 5.4289 46.4978H42.5735C45.5676 46.4978 47.9998 44.0664 47.9998 41.0723V6.934C48 3.93635 45.5678 1.50237 42.5737 1.50237ZM31.0392 9.58024C33.9347 9.58024 36.2829 11.9286 36.2829 14.8239C36.2829 17.7192 33.9345 20.0675 31.0392 20.0675C28.143 20.0675 25.7956 17.7192 25.7956 14.8239C25.7956 11.9286 28.143 9.58024 31.0392 9.58024ZM40.8711 41.4794H7.8796C6.43139 41.4794 5.78642 40.4316 6.43926 39.139L15.4383 21.3147C16.0904 20.0222 17.3331 19.9068 18.2131 21.0568L27.262 32.8822C28.142 34.0324 29.6802 34.1302 30.6983 33.0998L32.912 30.8582C33.9292 29.8277 35.4281 29.9553 36.2583 31.1413L41.9906 39.3294C42.8192 40.5171 42.3193 41.4794 40.8711 41.4794Z" fill="#1A1C36"/>
</svg>
