<svg width="40" height="40" viewBox="0 0 40 40" fill="none" xmlns="http://www.w3.org/2000/svg">
<rect width="40" height="40" rx="20" fill="#5F51D2"/>
<path d="M23.96 8H16.04C11.6 8 8 11.6 8 16.04V23.96C8 28.4 11.6 32 16.04 32H23.96C28.4 32 32 28.4 32 23.96V16.04C32 11.6 28.4 8 23.96 8ZM29.6 23.96C29.6 27.08 27.08 29.6 23.96 29.6H16.04C12.92 29.6 10.4 27.08 10.4 23.96V16.04C10.4 12.92 12.92 10.4 16.04 10.4H23.96C27.08 10.4 29.6 12.92 29.6 16.04V23.96Z" fill="white"/>
<path d="M20 14.8398C17.12 14.8398 14.84 17.1198 14.84 19.9998C14.84 22.8798 17.12 25.1598 20 25.1598C22.88 25.1598 25.16 22.8798 25.16 19.9998C25.16 17.1198 22.88 14.8398 20 14.8398ZM20 22.7598C18.44 22.7598 17.24 21.5598 17.24 19.9998C17.24 18.4398 18.44 17.2398 20 17.2398C21.56 17.2398 22.76 18.4398 22.76 19.9998C22.76 21.5598 21.56 22.7598 20 22.7598Z" fill="white"/>
<path d="M25.64 16.0402C26.5678 16.0402 27.32 15.288 27.32 14.3602C27.32 13.4323 26.5678 12.6802 25.64 12.6802C24.7121 12.6802 23.96 13.4323 23.96 14.3602C23.96 15.288 24.7121 16.0402 25.64 16.0402Z" fill="white"/>
</svg>
