<svg width="48" height="48" viewBox="0 0 48 48" fill="none" xmlns="http://www.w3.org/2000/svg">
<g clip-path="url(#clip0_2039_196)">
<path d="M29.287 18.7092C28.7183 18.1373 28.0879 17.6303 27.4073 17.1975C25.6047 16.0432 23.509 15.4298 21.3684 15.4298C19.8974 15.4271 18.4404 15.7154 17.0814 16.2783C15.7224 16.8411 14.4881 17.6673 13.4498 18.7092L3.27564 28.8914C1.18201 30.989 0.00531522 33.8311 0.00342029 36.7948C-0.000516505 42.9793 5.00971 47.996 11.1942 47.9999C12.6629 48.005 14.1181 47.7192 15.4758 47.1591C16.8335 46.599 18.0669 45.7757 19.1048 44.7365L27.5033 36.338C27.6161 36.2261 27.693 36.0832 27.7242 35.9274C27.7555 35.7717 27.7396 35.6101 27.6787 35.4634C27.6178 35.3167 27.5145 35.1914 27.3822 35.1036C27.2498 35.0158 27.0943 34.9694 26.9354 34.9703H26.6155C24.8608 34.9764 23.1218 34.6395 21.4964 33.9785C21.35 33.9182 21.189 33.9028 21.0338 33.9341C20.8786 33.9654 20.7362 34.0421 20.6246 34.1544L14.5857 40.2013C12.7104 42.0765 9.67012 42.0765 7.79489 40.2013C5.91967 38.3261 5.91967 35.2858 7.79489 33.4105L18.0091 23.2044C19.8828 21.333 22.9182 21.333 24.7919 23.2044C26.0547 24.3928 28.0244 24.3928 29.2871 23.2044C29.8304 22.6606 30.1597 21.9394 30.2149 21.1727C30.2438 20.7198 30.176 20.2659 30.016 19.8411C29.856 19.4164 29.6075 19.0306 29.287 18.7092Z" fill="#1A1C36"/>
<path d="M44.7161 3.28001C40.3427 -1.0933 33.2522 -1.0933 28.8789 3.28001L20.4884 11.6625C20.3758 11.7756 20.2996 11.9199 20.2697 12.0767C20.2397 12.2335 20.2574 12.3957 20.3204 12.5423C20.3827 12.6895 20.4876 12.8145 20.6216 12.9015C20.7556 12.9885 20.9125 13.0333 21.0722 13.0302H21.3682C23.1207 13.027 24.857 13.3667 26.4792 14.0301C26.6256 14.0903 26.7867 14.1058 26.9419 14.0745C27.097 14.0431 27.2395 13.9665 27.351 13.8541L33.374 7.83919C35.2492 5.96397 38.2895 5.96397 40.1647 7.83919C42.04 9.71442 42.04 12.7547 40.1647 14.63L32.6621 22.1246L32.598 22.1966L29.9745 24.8041C28.1008 26.6755 25.0655 26.6755 23.1917 24.8041C21.929 23.6157 19.9593 23.6157 18.6966 24.8041C18.1498 25.352 17.8202 26.0795 17.7687 26.8517C17.7398 27.3047 17.8076 27.7586 17.9675 28.1834C18.1275 28.6081 18.376 28.994 18.6966 29.3153C19.6223 30.245 20.7055 31.0033 21.896 31.5549C22.0639 31.6349 22.2319 31.6989 22.3999 31.7709C22.5678 31.8428 22.7438 31.8988 22.9118 31.9628C23.0799 32.026 23.2507 32.0821 23.4236 32.1308L23.8956 32.2587C24.2155 32.3387 24.5355 32.4027 24.8634 32.4587C25.2584 32.5173 25.6562 32.5548 26.0552 32.5707H26.663L27.143 32.5147C27.3189 32.5068 27.5029 32.4667 27.7109 32.4667H27.9828L28.5347 32.3868L28.7907 32.3388L29.2546 32.2428H29.3426C31.3074 31.7493 33.1014 30.732 34.5336 29.2993L44.7158 19.1172C49.0894 14.7439 49.0894 7.65332 44.7161 3.28001Z" fill="#1A1C36"/>
</g>
<defs>
<clipPath id="clip0_2039_196">
<rect width="48" height="48" fill="white"/>
</clipPath>
</defs>
</svg>
