<svg width="48" height="48" viewBox="0 0 48 48" fill="none" xmlns="http://www.w3.org/2000/svg">
<g clip-path="url(#clip0_2039_208)">
<path d="M45.6058 41.4295H13.5084C13.1938 41.4295 12.8824 41.3675 12.5918 41.2471C12.3012 41.1268 12.0372 40.9504 11.8148 40.728C11.5924 40.5056 11.416 40.2415 11.2956 39.9509C11.1752 39.6603 11.1133 39.3489 11.1133 39.0344C11.1133 38.7198 11.1752 38.4084 11.2956 38.1178C11.416 37.8272 11.5924 37.5632 11.8148 37.3408C12.0372 37.1184 12.3012 36.942 12.5918 36.8216C12.8824 36.7012 13.1938 36.6393 13.5084 36.6393H45.605C46.2402 36.6392 46.8494 36.8914 47.2987 37.3405C47.7479 37.7896 48.0004 38.3988 48.0005 39.034C48.0006 39.6692 47.7483 40.2784 47.2992 40.7277C46.8501 41.1769 46.241 41.4294 45.6058 41.4295ZM45.6058 26.3955H13.5084C12.8732 26.3955 12.264 26.1431 11.8148 25.694C11.3656 25.2448 11.1133 24.6356 11.1133 24.0004C11.1133 23.3652 11.3656 22.756 11.8148 22.3068C12.264 21.8576 12.8732 21.6053 13.5084 21.6053H45.605C46.2402 21.6052 46.8494 21.8574 47.2987 22.3065C47.7479 22.7556 48.0004 23.3648 48.0005 24C48.0006 24.6352 47.7483 25.2445 47.2992 25.6937C46.8501 26.1429 46.241 26.3954 45.6058 26.3955ZM45.6058 11.3615H13.5084C13.1938 11.3615 12.8824 11.2995 12.5918 11.1792C12.3012 11.0588 12.0372 10.8824 11.8148 10.66C11.5924 10.4376 11.416 10.1736 11.2956 9.88297C11.1752 9.59239 11.1133 9.28094 11.1133 8.96641C11.1133 8.65188 11.1752 8.34043 11.2956 8.04985C11.416 7.75926 11.5924 7.49523 11.8148 7.27282C12.0372 7.05042 12.3012 6.874 12.5918 6.75363C12.8824 6.63327 13.1938 6.57132 13.5084 6.57132H45.605C46.2402 6.57121 46.8494 6.82345 47.2987 7.27254C47.7479 7.72163 48.0004 8.33079 48.0005 8.96601C48.0006 9.60123 47.7483 10.2105 47.2992 10.6597C46.8501 11.109 46.241 11.3614 45.6058 11.3615Z" fill="#1A1A1A"/>
<path d="M3.21661 12.3682C4.99309 12.3682 6.43321 10.9281 6.43321 9.15163C6.43321 7.37515 4.99309 5.93503 3.21661 5.93503C1.44012 5.93503 0 7.37515 0 9.15163C0 10.9281 1.44012 12.3682 3.21661 12.3682Z" fill="#1A1A1A"/>
<path d="M3.21661 27.217C4.99309 27.217 6.43321 25.7769 6.43321 24.0004C6.43321 22.2239 4.99309 20.7838 3.21661 20.7838C1.44012 20.7838 0 22.2239 0 24.0004C0 25.7769 1.44012 27.217 3.21661 27.217Z" fill="#1A1A1A"/>
<path d="M3.21661 42.0657C4.99309 42.0657 6.43321 40.6256 6.43321 38.8491C6.43321 37.0727 4.99309 35.6325 3.21661 35.6325C1.44012 35.6325 0 37.0727 0 38.8491C0 40.6256 1.44012 42.0657 3.21661 42.0657Z" fill="#1A1A1A"/>
</g>
<defs>
<clipPath id="clip0_2039_208">
<rect width="48" height="48" fill="white"/>
</clipPath>
</defs>
</svg>
