<svg width="24" height="24" viewBox="0 0 24 24" fill="none" xmlns="http://www.w3.org/2000/svg">
<path d="M12 1C9.82441 1 7.69767 1.64514 5.88873 2.85384C4.07979 4.06253 2.66989 5.7805 1.83733 7.79048C1.00477 9.80047 0.786929 12.0122 1.21137 14.146C1.6358 16.2798 2.68345 18.2398 4.22183 19.7782C5.76021 21.3166 7.72022 22.3642 9.85401 22.7886C11.9878 23.2131 14.1995 22.9952 16.2095 22.1627C18.2195 21.3301 19.9375 19.9202 21.1462 18.1113C22.3549 16.3023 23 14.1756 23 12C23.0008 10.5552 22.7168 9.12449 22.1643 7.78955C21.6118 6.45461 20.8015 5.24167 19.7799 4.22007C18.7583 3.19847 17.5454 2.38824 16.2105 1.83572C14.8755 1.2832 13.4448 0.999213 12 1ZM11 6C11 5.73479 11.1054 5.48043 11.2929 5.29289C11.4804 5.10536 11.7348 5 12 5C12.2652 5 12.5196 5.10536 12.7071 5.29289C12.8946 5.48043 13 5.73479 13 6V10C13 10.2652 12.8946 10.5196 12.7071 10.7071C12.5196 10.8946 12.2652 11 12 11C11.7348 11 11.4804 10.8946 11.2929 10.7071C11.1054 10.5196 11 10.2652 11 10V6ZM16.95 16.95C15.6372 18.2628 13.8566 19.0004 12 19.0004C10.1434 19.0004 8.36283 18.2628 7.05 16.95C5.73718 15.6372 4.99965 13.8566 4.99965 12C4.99965 10.1434 5.73718 8.36282 7.05 7.05C7.23737 6.86375 7.49082 6.75921 7.755 6.75921C8.01919 6.75921 8.27264 6.86375 8.46 7.05C8.55492 7.14126 8.63043 7.25074 8.68201 7.37188C8.73358 7.49302 8.76017 7.62334 8.76017 7.755C8.76017 7.88667 8.73358 8.01698 8.68201 8.13812C8.63043 8.25927 8.55492 8.36875 8.46 8.46C7.76201 9.15977 7.28706 10.0507 7.09516 11.0203C6.90325 11.9898 7.00301 12.9945 7.38182 13.9074C7.76063 14.8203 8.4015 15.6004 9.22347 16.1493C10.0454 16.6981 11.0116 16.9911 12 16.9911C12.9884 16.9911 13.9546 16.6981 14.7765 16.1493C15.5985 15.6004 16.2394 14.8203 16.6182 13.9074C16.997 12.9945 17.0968 11.9898 16.9049 11.0203C16.713 10.0507 16.238 9.15977 15.54 8.46C15.4451 8.36875 15.3696 8.25927 15.318 8.13812C15.2664 8.01698 15.2398 7.88667 15.2398 7.755C15.2398 7.62334 15.2664 7.49302 15.318 7.37188C15.3696 7.25074 15.4451 7.14126 15.54 7.05C15.7274 6.86375 15.9808 6.75921 16.245 6.75921C16.5092 6.75921 16.7626 6.86375 16.95 7.05C17.6001 7.70002 18.1158 8.47173 18.4676 9.32105C18.8194 10.1704 19.0005 11.0807 19.0005 12C19.0005 12.9193 18.8194 13.8296 18.4676 14.679C18.1158 15.5283 17.6001 16.3 16.95 16.95Z" fill="white"/>
</svg>
