<svg width="85" height="14" viewBox="0 0 85 14" fill="none" xmlns="http://www.w3.org/2000/svg">
<path d="M8.514 0.954001V10.008C8.514 10.572 8.412 11.088 8.208 11.556C8.016 12.012 7.734 12.402 7.362 12.726C7.002 13.05 6.564 13.302 6.048 13.482C5.532 13.65 4.956 13.734 4.32 13.734C3.036 13.734 2.04 13.416 1.332 12.78C0.636 12.132 0.192 11.286 0 10.242L2.556 9.72C2.652 10.26 2.832 10.698 3.096 11.034C3.372 11.37 3.78 11.538 4.32 11.538C4.776 11.538 5.13 11.394 5.382 11.106C5.646 10.806 5.778 10.35 5.778 9.738V3.168H1.638V0.954001H8.514Z" fill="#1A1C36"/>
<path d="M17.075 11.826H16.967C16.763 12.354 16.439 12.804 15.995 13.176C15.563 13.548 14.975 13.734 14.231 13.734C13.787 13.734 13.379 13.662 13.007 13.518C12.635 13.362 12.317 13.134 12.053 12.834C11.789 12.534 11.579 12.168 11.423 11.736C11.279 11.304 11.207 10.806 11.207 10.242V4.23H13.871V9.882C13.871 11.082 14.393 11.682 15.437 11.682C15.641 11.682 15.839 11.658 16.031 11.61C16.235 11.55 16.409 11.466 16.553 11.358C16.709 11.238 16.835 11.094 16.931 10.926C17.027 10.758 17.075 10.56 17.075 10.332V4.23H19.739V13.518H17.075V11.826Z" fill="#1A1C36"/>
<path d="M26.1939 13.734C25.1619 13.734 24.2619 13.578 23.4939 13.266C22.7379 12.954 22.1679 12.528 21.7839 11.988L23.2779 10.602C23.6379 10.998 24.0579 11.31 24.5379 11.538C25.0299 11.754 25.5879 11.862 26.2119 11.862C26.7399 11.862 27.1539 11.784 27.4539 11.628C27.7539 11.46 27.9039 11.208 27.9039 10.872C27.9039 10.608 27.8019 10.428 27.5979 10.332C27.3939 10.224 27.1119 10.14 26.7519 10.08L25.2579 9.846C24.8379 9.786 24.4479 9.696 24.0879 9.576C23.7279 9.444 23.4159 9.27 23.1519 9.054C22.8879 8.838 22.6779 8.574 22.5219 8.262C22.3659 7.95 22.2879 7.572 22.2879 7.128C22.2879 6.156 22.6599 5.394 23.4039 4.842C24.1479 4.29 25.1919 4.014 26.5359 4.014C27.4479 4.014 28.2219 4.14 28.8579 4.392C29.5059 4.632 30.0219 4.98 30.4059 5.436L29.0739 6.948C28.7979 6.648 28.4439 6.396 28.0119 6.192C27.5799 5.988 27.0579 5.886 26.4459 5.886C25.4139 5.886 24.8979 6.198 24.8979 6.822C24.8979 7.098 24.9999 7.29 25.2039 7.398C25.4079 7.494 25.6899 7.572 26.0499 7.632L27.5259 7.866C27.9459 7.926 28.3359 8.022 28.6959 8.154C29.0559 8.274 29.3679 8.442 29.6319 8.658C29.9079 8.874 30.1239 9.138 30.2799 9.45C30.4359 9.762 30.5139 10.14 30.5139 10.584C30.5139 11.556 30.1359 12.324 29.3799 12.888C28.6359 13.452 27.5739 13.734 26.1939 13.734Z" fill="#1A1C36"/>
<path d="M37.8149 13.518C36.8549 13.518 36.1409 13.266 35.6729 12.762C35.2049 12.258 34.9709 11.616 34.9709 10.836V6.3H32.4509V4.23H34.0889C34.4849 4.23 34.7669 4.152 34.9349 3.996C35.1029 3.84 35.1869 3.552 35.1869 3.132V0.954001H37.6349V4.23H41.2529V6.3H37.6349V11.448H41.2529V13.518H37.8149Z" fill="#1A1C36"/>
<path d="M47.6899 13.734C46.6339 13.734 45.7159 13.56 44.9359 13.212C44.1559 12.864 43.5259 12.39 43.0459 11.79L44.6119 10.062C45.0679 10.566 45.5659 10.938 46.1059 11.178C46.6579 11.418 47.2159 11.538 47.7799 11.538C48.4279 11.538 48.9199 11.394 49.2559 11.106C49.5919 10.818 49.7599 10.404 49.7599 9.864C49.7599 9.42 49.6279 9.084 49.3639 8.856C49.1119 8.628 48.6799 8.466 48.0679 8.37L46.7539 8.154C45.6259 7.962 44.8099 7.548 44.3059 6.912C43.8019 6.264 43.5499 5.478 43.5499 4.554C43.5499 3.342 43.9459 2.406 44.7379 1.746C45.5299 1.074 46.6399 0.738 48.0679 0.738C49.0399 0.738 49.8859 0.888 50.6059 1.188C51.3259 1.488 51.9079 1.896 52.3519 2.412L50.8219 4.122C50.4859 3.75 50.0899 3.462 49.6339 3.258C49.1779 3.042 48.6619 2.934 48.0859 2.934C46.8739 2.934 46.2679 3.432 46.2679 4.428C46.2679 4.86 46.3999 5.184 46.6639 5.4C46.9399 5.616 47.3839 5.778 47.9959 5.886L49.3099 6.12C50.3299 6.3 51.1159 6.684 51.6679 7.272C52.2199 7.86 52.4959 8.652 52.4959 9.648C52.4959 10.236 52.3939 10.782 52.1899 11.286C51.9859 11.778 51.6799 12.21 51.2719 12.582C50.8639 12.942 50.3599 13.224 49.7599 13.428C49.1719 13.632 48.4819 13.734 47.6899 13.734Z" fill="#1A1C36"/>
<path d="M59.2568 3.042C58.6568 3.042 58.2368 2.922 57.9968 2.682C57.7688 2.43 57.6548 2.13 57.6548 1.782V1.26C57.6548 0.9 57.7688 0.600001 57.9968 0.360001C58.2368 0.12 58.6568 0 59.2568 0C59.8568 0 60.2708 0.12 60.4988 0.360001C60.7388 0.600001 60.8588 0.9 60.8588 1.26V1.782C60.8588 2.13 60.7388 2.43 60.4988 2.682C60.2708 2.922 59.8568 3.042 59.2568 3.042ZM54.9728 11.448H57.9248V6.3H54.9728V4.23H60.5888V11.448H63.3248V13.518H54.9728V11.448Z" fill="#1A1C36"/>
<path d="M70.1938 13.518C69.2338 13.518 68.5198 13.266 68.0518 12.762C67.5838 12.258 67.3498 11.616 67.3498 10.836V6.3H64.8298V4.23H66.4678C66.8638 4.23 67.1458 4.152 67.3138 3.996C67.4818 3.84 67.5658 3.552 67.5658 3.132V0.954001H70.0138V4.23H73.6318V6.3H70.0138V11.448H73.6318V13.518H70.1938Z" fill="#1A1C36"/>
<path d="M80.5188 13.734C78.9588 13.734 77.7768 13.302 76.9728 12.438C76.1688 11.574 75.7668 10.398 75.7668 8.91C75.7668 8.154 75.8688 7.476 76.0728 6.876C76.2888 6.264 76.5888 5.748 76.9728 5.328C77.3688 4.896 77.8428 4.572 78.3948 4.356C78.9588 4.128 79.5888 4.014 80.2848 4.014C80.9808 4.014 81.6048 4.128 82.1568 4.356C82.7088 4.572 83.1768 4.884 83.5608 5.292C83.9448 5.7 84.2388 6.198 84.4428 6.786C84.6588 7.362 84.7668 8.01 84.7668 8.73V9.522H78.4128V9.684C78.4128 10.284 78.5988 10.77 78.9708 11.142C79.3428 11.502 79.8888 11.682 80.6088 11.682C81.1608 11.682 81.6348 11.58 82.0308 11.376C82.4268 11.16 82.7688 10.878 83.0568 10.53L84.4968 12.096C84.1368 12.54 83.6328 12.924 82.9848 13.248C82.3368 13.572 81.5148 13.734 80.5188 13.734ZM80.3028 5.922C79.7268 5.922 79.2648 6.102 78.9168 6.462C78.5808 6.81 78.4128 7.284 78.4128 7.884V8.028H82.1568V7.884C82.1568 7.272 81.9888 6.792 81.6528 6.444C81.3288 6.096 80.8788 5.922 80.3028 5.922Z" fill="#1A1C36"/>
</svg>
