<svg width="48" height="48" viewBox="0 0 48 48" fill="none" xmlns="http://www.w3.org/2000/svg">
<g clip-path="url(#clip0_2039_219)">
<path d="M46.5938 0H1.40625C0.629625 0 0 0.629625 0 1.40625V12.6562C0 15.4994 2.31309 17.8125 5.15625 17.8125H42.8438C45.6869 17.8125 48 15.4994 48 12.6562V1.40625C48 0.629625 47.3704 0 46.5938 0ZM42.8438 30.1875H5.15625C2.31309 30.1875 0 32.5006 0 35.3438V46.5938C0 47.3704 0.629625 48 1.40625 48H46.5938C47.3704 48 48 47.3704 48 46.5938V35.3438C48 32.5006 45.6869 30.1875 42.8438 30.1875ZM4.21875 25.4062C4.99538 25.4062 5.625 24.7766 5.625 24C5.625 23.2234 4.99538 22.5938 4.21875 22.5938H1.40625C0.629625 22.5938 0 23.2234 0 24C0 24.7766 0.629625 25.4062 1.40625 25.4062H4.21875ZM12.6937 25.4062C13.4704 25.4062 14.1 24.7766 14.1 24C14.1 23.2234 13.4704 22.5938 12.6937 22.5938H9.88125C9.10462 22.5938 8.475 23.2234 8.475 24C8.475 24.7766 9.10462 25.4062 9.88125 25.4062H12.6937ZM46.5938 22.5938H43.7812C43.0046 22.5938 42.375 23.2234 42.375 24C42.375 24.7766 43.0046 25.4062 43.7812 25.4062H46.5938C47.3704 25.4062 48 24.7766 48 24C48 23.2234 47.3704 22.5938 46.5938 22.5938ZM38.1188 25.4062C38.8954 25.4062 39.525 24.7766 39.525 24C39.525 23.2234 38.8954 22.5938 38.1188 22.5938H35.3063C34.5296 22.5938 33.9 23.2234 33.9 24C33.9 24.7766 34.5296 25.4062 35.3063 25.4062H38.1188ZM21.1688 25.4062C21.9454 25.4062 22.575 24.7766 22.575 24C22.575 23.2234 21.9454 22.5938 21.1688 22.5938H18.3563C17.5796 22.5938 16.95 23.2234 16.95 24C16.95 24.7766 17.5796 25.4062 18.3563 25.4062H21.1688ZM29.6438 25.4062C30.4204 25.4062 31.05 24.7766 31.05 24C31.05 23.2234 30.4204 22.5938 29.6438 22.5938H26.8313C26.0546 22.5938 25.425 23.2234 25.425 24C25.425 24.7766 26.0546 25.4062 26.8313 25.4062H29.6438Z" fill="#1A1C36"/>
</g>
<defs>
<clipPath id="clip0_2039_219">
<rect width="48" height="48" fill="white"/>
</clipPath>
</defs>
</svg>
