<svg width="24" height="24" viewBox="0 0 24 24" fill="none" xmlns="http://www.w3.org/2000/svg">
<path d="M17.637 7.91904H15.59C15.3911 7.91904 15.2004 7.99806 15.0597 8.13871C14.9191 8.27937 14.84 8.47013 14.84 8.66904C14.84 8.86796 14.9191 9.05872 15.0597 9.19938C15.2004 9.34003 15.3911 9.41904 15.59 9.41904H17.6375C18.051 9.41904 18.3875 9.75554 18.3875 10.169V19.977C18.3875 20.3905 18.051 20.727 17.6375 20.727H6.36304C5.94954 20.727 5.61304 20.3905 5.61304 19.977V10.169C5.61304 9.75554 5.94954 9.41904 6.36304 9.41904H8.41054C8.60945 9.41904 8.80022 9.34003 8.94087 9.19938C9.08152 9.05872 9.16054 8.86796 9.16054 8.66904C9.16054 8.47013 9.08152 8.27937 8.94087 8.13871C8.80022 7.99806 8.60945 7.91904 8.41054 7.91904H6.36304C5.7665 7.91971 5.19459 8.15697 4.77278 8.57878C4.35096 9.0006 4.1137 9.57251 4.11304 10.169V19.977C4.11304 21.2175 5.12254 22.227 6.36304 22.227H17.6375C18.878 22.227 19.8875 21.2175 19.8875 19.977V10.169C19.8867 9.57246 19.6494 9.00055 19.2275 8.57875C18.8056 8.15696 18.2336 7.91971 17.637 7.91904ZM9.20354 6.40505L11.275 4.33354V14.2075C11.275 14.306 11.2944 14.4036 11.3321 14.4946C11.3698 14.5856 11.4251 14.6682 11.4947 14.7379C11.5644 14.8075 11.647 14.8628 11.738 14.9005C11.829 14.9381 11.9265 14.9575 12.025 14.9575C12.1235 14.9575 12.2211 14.9381 12.3121 14.9005C12.403 14.8628 12.4857 14.8075 12.5554 14.7379C12.625 14.6682 12.6803 14.5856 12.7179 14.4946C12.7556 14.4036 12.775 14.306 12.775 14.2075V4.33354L14.8465 6.40505C14.993 6.55155 15.185 6.62454 15.377 6.62454C15.569 6.62454 15.761 6.55155 15.9075 6.40505C16.0481 6.2644 16.1271 6.07367 16.1271 5.87479C16.1271 5.67592 16.0481 5.48519 15.9075 5.34454L12.556 1.99254C12.4864 1.92285 12.4037 1.86756 12.3127 1.82984C12.2216 1.79212 12.1241 1.77271 12.0255 1.77271C11.927 1.77271 11.8294 1.79212 11.7384 1.82984C11.6474 1.86756 11.5647 1.92285 11.495 1.99254L8.14304 5.34454C8.0714 5.41373 8.01427 5.49649 7.97496 5.58799C7.93565 5.67949 7.91496 5.77791 7.9141 5.87749C7.91323 5.97708 7.93221 6.07584 7.96992 6.16801C8.00763 6.26018 8.06332 6.34392 8.13374 6.41434C8.20416 6.48476 8.2879 6.54045 8.38007 6.57816C8.47224 6.61587 8.571 6.63485 8.67059 6.63398C8.77017 6.63312 8.86859 6.61243 8.96009 6.57312C9.05159 6.53381 9.13435 6.47668 9.20354 6.40505Z" fill="white"/>
</svg>
