<svg width="512" height="512" viewBox="0 0 512 512" fill="none" xmlns="http://www.w3.org/2000/svg">
<path d="M212.704 118.976L225.552 154.656C232.602 174.216 243.88 191.98 258.582 206.682C273.284 221.384 291.048 232.662 310.608 239.712L346.288 252.56C346.993 252.818 347.601 253.287 348.03 253.902C348.46 254.517 348.691 255.25 348.691 256C348.691 256.75 348.46 257.483 348.03 258.098C347.601 258.713 346.993 259.182 346.288 259.44L310.608 272.288C291.048 279.338 273.284 290.616 258.582 305.318C243.88 320.02 232.602 337.784 225.552 357.344L212.704 393.024C212.446 393.729 211.977 394.337 211.362 394.766C210.747 395.196 210.014 395.427 209.264 395.427C208.514 395.427 207.781 395.196 207.166 394.766C206.551 394.337 206.082 393.729 205.824 393.024L192.976 357.344C185.926 337.784 174.648 320.02 159.946 305.318C145.244 290.616 127.48 279.338 107.92 272.288L72.24 259.44C71.5355 259.182 70.9272 258.713 70.4976 258.098C70.0679 257.483 69.8375 256.75 69.8375 256C69.8375 255.25 70.0679 254.517 70.4976 253.902C70.9272 253.287 71.5355 252.818 72.24 252.56L107.92 239.712C127.48 232.662 145.244 221.384 159.946 206.682C174.648 191.98 185.926 174.216 192.976 154.656L205.824 118.976C206.075 118.264 206.541 117.648 207.157 117.212C207.773 116.776 208.509 116.542 209.264 116.542C210.019 116.542 210.755 116.776 211.371 117.212C211.987 117.648 212.453 118.264 212.704 118.976ZM373.312 33.232L379.824 51.296C383.397 61.1995 389.109 70.1937 396.554 77.6384C403.998 85.083 412.992 90.7951 422.896 94.368L440.96 100.88C441.318 101.01 441.627 101.248 441.845 101.56C442.064 101.872 442.181 102.243 442.181 102.624C442.181 103.005 442.064 103.376 441.845 103.688C441.627 104 441.318 104.238 440.96 104.368L422.896 110.88C412.992 114.453 403.998 120.165 396.554 127.61C389.109 135.054 383.397 144.048 379.824 153.952L373.312 172.016C373.182 172.374 372.944 172.683 372.632 172.901C372.32 173.12 371.949 173.237 371.568 173.237C371.187 173.237 370.816 173.12 370.504 172.901C370.192 172.683 369.954 172.374 369.824 172.016L363.312 153.952C359.739 144.048 354.027 135.054 346.582 127.61C339.138 120.165 330.144 114.453 320.24 110.88L302.176 104.368C301.818 104.238 301.509 104 301.291 103.688C301.072 103.376 300.955 103.005 300.955 102.624C300.955 102.243 301.072 101.872 301.291 101.56C301.509 101.248 301.818 101.01 302.176 100.88L320.24 94.368C330.144 90.7951 339.138 85.083 346.582 77.6384C354.027 70.1937 359.739 61.1995 363.312 51.296L369.824 33.232C369.954 32.8741 370.192 32.565 370.504 32.3466C370.816 32.1281 371.187 32.011 371.568 32.011C371.949 32.011 372.32 32.1281 372.632 32.3466C372.944 32.565 373.182 32.8741 373.312 33.232ZM373.312 340L379.824 358.064C383.397 367.968 389.109 376.962 396.554 384.406C403.998 391.851 412.992 397.563 422.896 401.136L440.96 407.648C441.318 407.778 441.627 408.016 441.845 408.328C442.064 408.639 442.181 409.011 442.181 409.392C442.181 409.773 442.064 410.144 441.845 410.456C441.627 410.768 441.318 411.006 440.96 411.136L422.896 417.648C412.992 421.221 403.998 426.933 396.554 434.378C389.109 441.822 383.397 450.816 379.824 460.72L373.312 478.784C373.182 479.142 372.944 479.451 372.632 479.669C372.32 479.888 371.949 480.005 371.568 480.005C371.187 480.005 370.816 479.888 370.504 479.669C370.192 479.451 369.954 479.142 369.824 478.784L363.312 460.72C359.739 450.816 354.027 441.822 346.582 434.378C339.138 426.933 330.144 421.221 320.24 417.648L302.176 411.136C301.818 411.006 301.509 410.768 301.291 410.456C301.072 410.144 300.955 409.773 300.955 409.392C300.955 409.011 301.072 408.639 301.291 408.328C301.509 408.016 301.818 407.778 302.176 407.648L320.24 401.136C330.144 397.563 339.138 391.851 346.582 384.406C354.027 376.962 359.739 367.968 363.312 358.064L369.824 340C370.416 338.368 372.736 338.368 373.312 340Z" fill="white"/>
</svg>
