<svg width="40" height="40" viewBox="0 0 40 40" fill="none" xmlns="http://www.w3.org/2000/svg">
<rect width="40" height="40" rx="20" fill="#5F51D2"/>
<path d="M20 8C13.4 8 8 13.4 8 20C8 26.6 13.4 32 20 32C26.6 32 32 26.6 32 20C32 13.4 26.6 8 20 8ZM20 29.6C14.72 29.6 10.4 25.28 10.4 20C10.4 14.72 14.72 10.4 20 10.4C25.28 10.4 29.6 14.72 29.6 20C29.6 25.28 25.28 29.6 20 29.6Z" fill="white"/>
<path d="M25.4 14.84C25.04 14.48 24.56 14.48 24.32 14.48C23.72 14.48 23.12 14.72 19.88 16.04C18.92 16.52 16.76 17.48 13.52 18.8C13.16 18.92 12.2 19.28 12.08 20.12C11.96 21.2 13.04 21.56 13.64 21.8L14 21.92C14.6 22.16 15.68 22.28 15.8 22.4C16.28 22.52 16.76 22.16 16.88 21.68C17 21.2 16.64 20.72 16.16 20.6C15.92 20.6 15.44 20.48 14.96 20.36C17.72 19.16 19.64 18.32 20.72 17.96C22.4 17.24 23.6 16.76 24.08 16.64C23.84 18.44 23.24 22.52 22.88 24.2C22.88 24.32 22.76 24.44 22.76 24.56C22.64 24.44 22.4 24.32 22.16 24.2C22.04 24.08 21.92 23.96 21.8 23.96C21.32 23.6 20.96 23.36 20.48 23.12C20.12 22.88 19.76 22.64 19.28 22.4C19.28 22.4 19.28 22.4 19.4 22.28C19.52 22.16 19.52 22.16 19.64 22.04C19.88 21.92 20.84 21.2 21.68 20.72C22.16 20.48 22.28 19.88 21.92 19.4C21.68 18.92 21.08 18.8 20.6 19.16C18.56 20.48 18.32 20.6 18.32 20.72C18.2 20.84 18.2 20.84 18.08 20.96C17.72 21.32 17.24 21.8 17.24 22.52C17.36 23.24 17.96 23.72 18.2 23.84C18.68 24.08 19.04 24.32 19.4 24.56C19.76 24.8 20.24 25.04 20.72 25.4C20.84 25.52 20.96 25.52 21.08 25.64C21.56 26 22.16 26.36 22.88 26.36C23 26.36 23 26.36 23.12 26.36C23.6 26.36 24.44 26 24.68 24.44C25.04 22.52 25.76 18.32 25.88 16.52C25.88 16.16 25.88 15.92 25.88 15.8C25.76 15.32 25.64 15.08 25.4 14.84Z" fill="white"/>
</svg>
