<svg width="48" height="48" viewBox="0 0 48 48" fill="none" xmlns="http://www.w3.org/2000/svg">
<path fill-rule="evenodd" clip-rule="evenodd" d="M19.7759 21.6L21.7343 27.192C21.9444 27.7929 22.3845 28.2857 22.958 28.5621C23.5314 28.8384 24.1911 28.8757 24.7919 28.6656C25.3928 28.4556 25.8856 28.0154 26.162 27.442C26.4384 26.8686 26.4756 26.2089 26.2655 25.608L18.2615 2.7408C17.981 1.94048 17.4587 1.24711 16.7669 0.756553C16.0751 0.265998 15.248 0.00250244 14.3999 0.00250244C13.5519 0.00250244 12.7248 0.265998 12.033 0.756553C11.3412 1.24711 10.8189 1.94048 10.5383 2.7408L2.53435 25.608C2.3243 26.2089 2.36154 26.8686 2.6379 27.442C2.91425 28.0154 3.40707 28.4556 4.00795 28.6656C4.60882 28.8757 5.26853 28.8384 5.84194 28.5621C6.41535 28.2857 6.8555 27.7929 7.06555 27.192L9.02155 21.6H19.7759ZM18.0959 16.8L14.3999 6.2376L10.7039 16.8H18.0959ZM37.1999 12C38.6615 12 40.032 12.372 41.2319 13.0272C41.5233 12.6069 41.9415 12.2908 42.4253 12.125C42.9092 11.9593 43.4333 11.9526 43.9212 12.1059C44.4091 12.2593 44.8352 12.5646 45.1372 12.9773C45.4393 13.3901 45.6014 13.8886 45.5999 14.4V26.4C45.5998 26.9106 45.4367 27.4079 45.1345 27.8195C44.8323 28.2311 44.4067 28.5356 43.9195 28.6887C43.4324 28.8418 42.9091 28.8356 42.4258 28.6708C41.9424 28.5061 41.5242 28.1915 41.2319 27.7728C40.1087 28.386 38.8603 28.7345 37.5818 28.7916C36.3034 28.8488 35.0288 28.613 33.8554 28.1025C32.682 27.5919 31.6407 26.82 30.8111 25.8456C29.9815 24.8713 29.3854 23.7202 29.0685 22.4804C28.7516 21.2406 28.7221 19.9447 28.9823 18.6917C29.2426 17.4388 29.7857 16.2618 30.5701 15.2508C31.3546 14.2397 32.3597 13.4212 33.5087 12.8579C34.6577 12.2945 35.9202 12.001 37.1999 12ZM37.1999 24C38.1547 24 39.0704 23.6207 39.7455 22.9456C40.4207 22.2705 40.7999 21.3548 40.7999 20.4C40.7999 19.4452 40.4207 18.5295 39.7455 17.8544C39.0704 17.1793 38.1547 16.8 37.1999 16.8C36.2452 16.8 35.3295 17.1793 34.6544 17.8544C33.9792 18.5295 33.5999 19.4452 33.5999 20.4C33.5999 21.3548 33.9792 22.2705 34.6544 22.9456C35.3295 23.6207 36.2452 24 37.1999 24Z" fill="#1A1C36"/>
<path d="M4.7999 33.6C4.16338 33.6 3.55293 33.8529 3.10285 34.303C2.65276 34.753 2.3999 35.3635 2.3999 36C2.3999 36.6365 2.65276 37.247 3.10285 37.6971C3.55293 38.1471 4.16338 38.4 4.7999 38.4H43.1999C43.8364 38.4 44.4469 38.1471 44.897 37.6971C45.347 37.247 45.5999 36.6365 45.5999 36C45.5999 35.3635 45.347 34.753 44.897 34.303C44.4469 33.8529 43.8364 33.6 43.1999 33.6H4.7999ZM4.7999 43.2C4.16338 43.2 3.55293 43.4529 3.10285 43.9029C2.65276 44.353 2.3999 44.9635 2.3999 45.6C2.3999 46.2365 2.65276 46.847 3.10285 47.2971C3.55293 47.7472 4.16338 48 4.7999 48H33.5999C34.2364 48 34.8469 47.7472 35.297 47.2971C35.747 46.847 35.9999 46.2365 35.9999 45.6C35.9999 44.9635 35.747 44.353 35.297 43.9029C34.8469 43.4529 34.2364 43.2 33.5999 43.2H4.7999Z" fill="#1A1C36"/>
</svg>
